<mxfile host="app.diagrams.net" agent="Mozilla/5.0 (Windows NT 10.0; Win64; x64) AppleWebKit/537.36 (KHTML, like Gecko) Chrome/136.0.0.0 Safari/537.36" version="27.0.6">
  <diagram name="Page-1" id="TGOsE8-X5O8Z2pBxVIfo">
    <mxGraphModel dx="1111" dy="517" grid="1" gridSize="10" guides="1" tooltips="1" connect="1" arrows="1" fold="1" page="1" pageScale="1" pageWidth="850" pageHeight="1100" math="0" shadow="0">
      <root>
        <mxCell id="0" />
        <mxCell id="1" parent="0" />
        <mxCell id="A5hs6e5QmUeZNUBaArSy-1" value="Tehnički muzej" style="shape=rectangle;rounded=1;whiteSpace=wrap;html=1;fillColor=#E6E6E6;strokeColor=#000000;align=center;verticalAlign=middle;fontSize=13;fontStyle=1;" vertex="1" parent="1">
          <mxGeometry x="710" y="180" width="280" height="50" as="geometry" />
        </mxCell>
        <mxCell id="A5hs6e5QmUeZNUBaArSy-2" value="" style="edgeStyle=orthogonalEdgeStyle;rounded=0;orthogonalLoop=1;jettySize=auto;html=1;endArrow=none;endFill=0;strokeWidth=1;" edge="1" parent="1" source="A5hs6e5QmUeZNUBaArSy-1">
          <mxGeometry relative="1" as="geometry">
            <mxPoint x="850" y="230" as="sourcePoint" />
            <mxPoint x="850" y="260" as="targetPoint" />
            <Array as="points">
              <mxPoint x="850" y="245" />
            </Array>
          </mxGeometry>
        </mxCell>
        <mxCell id="A5hs6e5QmUeZNUBaArSy-4" value="Upravljanje eksponatima" style="shape=rectangle;rounded=1;whiteSpace=wrap;html=1;fillColor=#FFF2CC;strokeColor=#D6B656;align=center;verticalAlign=middle;fontSize=12;" vertex="1" parent="1">
          <mxGeometry x="290" y="290" width="160" height="50" as="geometry" />
        </mxCell>
        <mxCell id="A5hs6e5QmUeZNUBaArSy-5" value="" style="edgeStyle=orthogonalEdgeStyle;rounded=0;orthogonalLoop=1;jettySize=auto;html=1;endArrow=none;endFill=0;strokeWidth=1;" edge="1" parent="1">
          <mxGeometry relative="1" as="geometry">
            <mxPoint x="370" y="260" as="sourcePoint" />
            <mxPoint x="370" y="290" as="targetPoint" />
          </mxGeometry>
        </mxCell>
        <mxCell id="A5hs6e5QmUeZNUBaArSy-6" value="Upravljanje izložbama" style="shape=rectangle;rounded=1;whiteSpace=wrap;html=1;fillColor=#F8CECC;strokeColor=#B85450;align=center;verticalAlign=middle;fontSize=12;" vertex="1" parent="1">
          <mxGeometry x="470" y="290" width="160" height="50" as="geometry" />
        </mxCell>
        <mxCell id="A5hs6e5QmUeZNUBaArSy-7" value="" style="edgeStyle=orthogonalEdgeStyle;rounded=0;orthogonalLoop=1;jettySize=auto;html=1;endArrow=none;endFill=0;strokeWidth=1;" edge="1" parent="1">
          <mxGeometry relative="1" as="geometry">
            <mxPoint x="550" y="260" as="sourcePoint" />
            <mxPoint x="550" y="290" as="targetPoint" />
          </mxGeometry>
        </mxCell>
        <mxCell id="A5hs6e5QmUeZNUBaArSy-8" value="Upravljanje edukacijskim programima" style="shape=rectangle;rounded=1;whiteSpace=wrap;html=1;fillColor=#D5E8D4;strokeColor=#82B366;align=center;verticalAlign=middle;fontSize=12;" vertex="1" parent="1">
          <mxGeometry x="650" y="290" width="160" height="50" as="geometry" />
        </mxCell>
        <mxCell id="A5hs6e5QmUeZNUBaArSy-9" value="" style="edgeStyle=orthogonalEdgeStyle;rounded=0;orthogonalLoop=1;jettySize=auto;html=1;endArrow=none;endFill=0;strokeWidth=1;" edge="1" parent="1">
          <mxGeometry relative="1" as="geometry">
            <mxPoint x="730" y="260" as="sourcePoint" />
            <mxPoint x="730" y="290" as="targetPoint" />
          </mxGeometry>
        </mxCell>
        <mxCell id="A5hs6e5QmUeZNUBaArSy-10" value="Upravljanje posjetiteljima i rezervacijama" style="shape=rectangle;rounded=1;whiteSpace=wrap;html=1;fillColor=#E1D5E7;strokeColor=#9673A6;align=center;verticalAlign=middle;fontSize=12;" vertex="1" parent="1">
          <mxGeometry x="830" y="290" width="160" height="50" as="geometry" />
        </mxCell>
        <mxCell id="A5hs6e5QmUeZNUBaArSy-11" value="" style="edgeStyle=orthogonalEdgeStyle;rounded=0;orthogonalLoop=1;jettySize=auto;html=1;endArrow=none;endFill=0;strokeWidth=1;" edge="1" parent="1">
          <mxGeometry relative="1" as="geometry">
            <mxPoint x="910" y="260" as="sourcePoint" />
            <mxPoint x="910" y="290" as="targetPoint" />
          </mxGeometry>
        </mxCell>
        <mxCell id="A5hs6e5QmUeZNUBaArSy-12" value="Analitika i izvještavanje" style="shape=rectangle;rounded=1;whiteSpace=wrap;html=1;fillColor=#FFE6CC;strokeColor=#D79B00;align=center;verticalAlign=middle;fontSize=12;" vertex="1" parent="1">
          <mxGeometry x="1010" y="290" width="160" height="50" as="geometry" />
        </mxCell>
        <mxCell id="A5hs6e5QmUeZNUBaArSy-13" value="" style="edgeStyle=orthogonalEdgeStyle;rounded=0;orthogonalLoop=1;jettySize=auto;html=1;endArrow=none;endFill=0;strokeWidth=1;" edge="1" parent="1">
          <mxGeometry relative="1" as="geometry">
            <mxPoint x="1090" y="260" as="sourcePoint" />
            <mxPoint x="1090" y="290" as="targetPoint" />
          </mxGeometry>
        </mxCell>
        <mxCell id="A5hs6e5QmUeZNUBaArSy-14" value="Administracija sustava" style="shape=rectangle;rounded=1;whiteSpace=wrap;html=1;fillColor=#F5F5F5;strokeColor=#666666;align=center;verticalAlign=middle;fontSize=12;" vertex="1" parent="1">
          <mxGeometry x="1190" y="290" width="160" height="50" as="geometry" />
        </mxCell>
        <mxCell id="A5hs6e5QmUeZNUBaArSy-15" value="" style="edgeStyle=orthogonalEdgeStyle;rounded=0;orthogonalLoop=1;jettySize=auto;html=1;endArrow=none;endFill=0;strokeWidth=1;" edge="1" parent="1">
          <mxGeometry relative="1" as="geometry">
            <mxPoint x="1270" y="260" as="sourcePoint" />
            <mxPoint x="1270" y="290" as="targetPoint" />
          </mxGeometry>
        </mxCell>
        <mxCell id="A5hs6e5QmUeZNUBaArSy-16" value="Unos i evidencija eksponata" style="shape=rectangle;rounded=1;whiteSpace=wrap;html=1;fillColor=#DAE8FC;strokeColor=#6C8EBF;align=center;verticalAlign=middle;fontSize=11;" vertex="1" parent="1">
          <mxGeometry x="310" y="400" width="140" height="40" as="geometry" />
        </mxCell>
        <mxCell id="A5hs6e5QmUeZNUBaArSy-17" value="Pretraga i klasifikacija" style="shape=rectangle;rounded=1;whiteSpace=wrap;html=1;fillColor=#DAE8FC;strokeColor=#6C8EBF;align=center;verticalAlign=middle;fontSize=11;" vertex="1" parent="1">
          <mxGeometry x="310" y="455" width="140" height="40" as="geometry" />
        </mxCell>
        <mxCell id="A5hs6e5QmUeZNUBaArSy-18" value="Ažuriranje podataka i statusa" style="shape=rectangle;rounded=1;whiteSpace=wrap;html=1;fillColor=#DAE8FC;strokeColor=#6C8EBF;align=center;verticalAlign=middle;fontSize=11;" vertex="1" parent="1">
          <mxGeometry x="310" y="510" width="140" height="40" as="geometry" />
        </mxCell>
        <mxCell id="A5hs6e5QmUeZNUBaArSy-22" value="Planiranje i kreiranje izložbi" style="shape=rectangle;rounded=1;whiteSpace=wrap;html=1;fillColor=#DAE8FC;strokeColor=#6C8EBF;align=center;verticalAlign=middle;fontSize=11;" vertex="1" parent="1">
          <mxGeometry x="480" y="400" width="140" height="40" as="geometry" />
        </mxCell>
        <mxCell id="A5hs6e5QmUeZNUBaArSy-23" value="Organizacija postava" style="shape=rectangle;rounded=1;whiteSpace=wrap;html=1;fillColor=#DAE8FC;strokeColor=#6C8EBF;align=center;verticalAlign=middle;fontSize=11;" vertex="1" parent="1">
          <mxGeometry x="480" y="455" width="140" height="40" as="geometry" />
        </mxCell>
        <mxCell id="A5hs6e5QmUeZNUBaArSy-24" value="Arhiviranje izložbi" style="shape=rectangle;rounded=1;whiteSpace=wrap;html=1;fillColor=#DAE8FC;strokeColor=#6C8EBF;align=center;verticalAlign=middle;fontSize=11;" vertex="1" parent="1">
          <mxGeometry x="480" y="510" width="140" height="40" as="geometry" />
        </mxCell>
        <mxCell id="A5hs6e5QmUeZNUBaArSy-28" value="Kreiranje programa/radionica" style="shape=rectangle;rounded=1;whiteSpace=wrap;html=1;fillColor=#DAE8FC;strokeColor=#6C8EBF;align=center;verticalAlign=middle;fontSize=11;" vertex="1" parent="1">
          <mxGeometry x="660" y="400" width="140" height="40" as="geometry" />
        </mxCell>
        <mxCell id="A5hs6e5QmUeZNUBaArSy-29" value="Upravljanje prijavama" style="shape=rectangle;rounded=1;whiteSpace=wrap;html=1;fillColor=#DAE8FC;strokeColor=#6C8EBF;align=center;verticalAlign=middle;fontSize=11;" vertex="1" parent="1">
          <mxGeometry x="660" y="455" width="140" height="40" as="geometry" />
        </mxCell>
        <mxCell id="A5hs6e5QmUeZNUBaArSy-30" value="Evidencija realizacije" style="shape=rectangle;rounded=1;whiteSpace=wrap;html=1;fillColor=#DAE8FC;strokeColor=#6C8EBF;align=center;verticalAlign=middle;fontSize=11;" vertex="1" parent="1">
          <mxGeometry x="660" y="510" width="140" height="40" as="geometry" />
        </mxCell>
        <mxCell id="A5hs6e5QmUeZNUBaArSy-34" value="Evidencija posjeta" style="shape=rectangle;rounded=1;whiteSpace=wrap;html=1;fillColor=#DAE8FC;strokeColor=#6C8EBF;align=center;verticalAlign=middle;fontSize=11;" vertex="1" parent="1">
          <mxGeometry x="840" y="400" width="140" height="40" as="geometry" />
        </mxCell>
        <mxCell id="A5hs6e5QmUeZNUBaArSy-35" value="Upravljanje rezervacijama" style="shape=rectangle;rounded=1;whiteSpace=wrap;html=1;fillColor=#DAE8FC;strokeColor=#6C8EBF;align=center;verticalAlign=middle;fontSize=11;" vertex="1" parent="1">
          <mxGeometry x="840" y="455" width="140" height="40" as="geometry" />
        </mxCell>
        <mxCell id="A5hs6e5QmUeZNUBaArSy-36" value="Komunikacija s posjetiteljima" style="shape=rectangle;rounded=1;whiteSpace=wrap;html=1;fillColor=#DAE8FC;strokeColor=#6C8EBF;align=center;verticalAlign=middle;fontSize=11;" vertex="1" parent="1">
          <mxGeometry x="840" y="510" width="140" height="40" as="geometry" />
        </mxCell>
        <mxCell id="A5hs6e5QmUeZNUBaArSy-40" value="Izvještaji o posjećenosti" style="shape=rectangle;rounded=1;whiteSpace=wrap;html=1;fillColor=#DAE8FC;strokeColor=#6C8EBF;align=center;verticalAlign=middle;fontSize=11;" vertex="1" parent="1">
          <mxGeometry x="1020" y="400" width="140" height="40" as="geometry" />
        </mxCell>
        <mxCell id="A5hs6e5QmUeZNUBaArSy-41" value="Analiza popularnosti" style="shape=rectangle;rounded=1;whiteSpace=wrap;html=1;fillColor=#DAE8FC;strokeColor=#6C8EBF;align=center;verticalAlign=middle;fontSize=11;" vertex="1" parent="1">
          <mxGeometry x="1020" y="455" width="140" height="40" as="geometry" />
        </mxCell>
        <mxCell id="A5hs6e5QmUeZNUBaArSy-42" value="Izrada statistika" style="shape=rectangle;rounded=1;whiteSpace=wrap;html=1;fillColor=#DAE8FC;strokeColor=#6C8EBF;align=center;verticalAlign=middle;fontSize=11;" vertex="1" parent="1">
          <mxGeometry x="1020" y="510" width="140" height="40" as="geometry" />
        </mxCell>
        <mxCell id="A5hs6e5QmUeZNUBaArSy-46" value="Upravljanje korisnicima" style="shape=rectangle;rounded=1;whiteSpace=wrap;html=1;fillColor=#DAE8FC;strokeColor=#6C8EBF;align=center;verticalAlign=middle;fontSize=11;" vertex="1" parent="1">
          <mxGeometry x="1200" y="400" width="140" height="40" as="geometry" />
        </mxCell>
        <mxCell id="A5hs6e5QmUeZNUBaArSy-47" value="Definiranje uloga i prava" style="shape=rectangle;rounded=1;whiteSpace=wrap;html=1;fillColor=#DAE8FC;strokeColor=#6C8EBF;align=center;verticalAlign=middle;fontSize=11;" vertex="1" parent="1">
          <mxGeometry x="1200" y="455" width="140" height="40" as="geometry" />
        </mxCell>
        <mxCell id="A5hs6e5QmUeZNUBaArSy-48" value="Konfiguracija sustava" style="shape=rectangle;rounded=1;whiteSpace=wrap;html=1;fillColor=#DAE8FC;strokeColor=#6C8EBF;align=center;verticalAlign=middle;fontSize=11;" vertex="1" parent="1">
          <mxGeometry x="1200" y="510" width="140" height="40" as="geometry" />
        </mxCell>
        <mxCell id="A5hs6e5QmUeZNUBaArSy-52" value="" style="endArrow=none;html=1;rounded=0;entryX=0;entryY=1;entryDx=0;entryDy=0;" edge="1" parent="1" target="A5hs6e5QmUeZNUBaArSy-4">
          <mxGeometry width="50" height="50" relative="1" as="geometry">
            <mxPoint x="290" y="530" as="sourcePoint" />
            <mxPoint x="318" y="370" as="targetPoint" />
          </mxGeometry>
        </mxCell>
        <mxCell id="A5hs6e5QmUeZNUBaArSy-56" value="" style="endArrow=none;html=1;rounded=0;entryX=0;entryY=0.5;entryDx=0;entryDy=0;" edge="1" parent="1" target="A5hs6e5QmUeZNUBaArSy-16">
          <mxGeometry width="50" height="50" relative="1" as="geometry">
            <mxPoint x="290" y="420" as="sourcePoint" />
            <mxPoint x="340" y="380" as="targetPoint" />
          </mxGeometry>
        </mxCell>
        <mxCell id="A5hs6e5QmUeZNUBaArSy-57" value="" style="endArrow=none;html=1;rounded=0;entryX=0;entryY=0.5;entryDx=0;entryDy=0;" edge="1" parent="1" target="A5hs6e5QmUeZNUBaArSy-17">
          <mxGeometry width="50" height="50" relative="1" as="geometry">
            <mxPoint x="290" y="475" as="sourcePoint" />
            <mxPoint x="340" y="430" as="targetPoint" />
          </mxGeometry>
        </mxCell>
        <mxCell id="A5hs6e5QmUeZNUBaArSy-58" value="" style="endArrow=none;html=1;rounded=0;entryX=0;entryY=0.5;entryDx=0;entryDy=0;" edge="1" parent="1" target="A5hs6e5QmUeZNUBaArSy-18">
          <mxGeometry width="50" height="50" relative="1" as="geometry">
            <mxPoint x="290" y="530" as="sourcePoint" />
            <mxPoint x="340" y="480" as="targetPoint" />
          </mxGeometry>
        </mxCell>
        <mxCell id="A5hs6e5QmUeZNUBaArSy-60" value="" style="endArrow=none;html=1;rounded=0;entryX=0;entryY=1;entryDx=0;entryDy=0;" edge="1" parent="1" target="A5hs6e5QmUeZNUBaArSy-6">
          <mxGeometry width="50" height="50" relative="1" as="geometry">
            <mxPoint x="470" y="530" as="sourcePoint" />
            <mxPoint x="480" y="350" as="targetPoint" />
          </mxGeometry>
        </mxCell>
        <mxCell id="A5hs6e5QmUeZNUBaArSy-61" value="" style="endArrow=none;html=1;rounded=0;entryX=0;entryY=0.5;entryDx=0;entryDy=0;" edge="1" parent="1" target="A5hs6e5QmUeZNUBaArSy-22">
          <mxGeometry width="50" height="50" relative="1" as="geometry">
            <mxPoint x="470" y="420" as="sourcePoint" />
            <mxPoint x="520" y="370" as="targetPoint" />
          </mxGeometry>
        </mxCell>
        <mxCell id="A5hs6e5QmUeZNUBaArSy-62" value="" style="endArrow=none;html=1;rounded=0;entryX=0;entryY=0.5;entryDx=0;entryDy=0;" edge="1" parent="1" target="A5hs6e5QmUeZNUBaArSy-23">
          <mxGeometry width="50" height="50" relative="1" as="geometry">
            <mxPoint x="470" y="475" as="sourcePoint" />
            <mxPoint x="520" y="450" as="targetPoint" />
          </mxGeometry>
        </mxCell>
        <mxCell id="A5hs6e5QmUeZNUBaArSy-63" value="" style="endArrow=none;html=1;rounded=0;entryX=0;entryY=0.5;entryDx=0;entryDy=0;" edge="1" parent="1" target="A5hs6e5QmUeZNUBaArSy-24">
          <mxGeometry width="50" height="50" relative="1" as="geometry">
            <mxPoint x="470" y="530" as="sourcePoint" />
            <mxPoint x="520" y="480" as="targetPoint" />
          </mxGeometry>
        </mxCell>
        <mxCell id="A5hs6e5QmUeZNUBaArSy-64" value="" style="endArrow=none;html=1;rounded=0;" edge="1" parent="1">
          <mxGeometry width="50" height="50" relative="1" as="geometry">
            <mxPoint x="650" y="530" as="sourcePoint" />
            <mxPoint x="650" y="340" as="targetPoint" />
          </mxGeometry>
        </mxCell>
        <mxCell id="A5hs6e5QmUeZNUBaArSy-65" value="" style="endArrow=none;html=1;rounded=0;entryX=0;entryY=0.5;entryDx=0;entryDy=0;" edge="1" parent="1" target="A5hs6e5QmUeZNUBaArSy-28">
          <mxGeometry width="50" height="50" relative="1" as="geometry">
            <mxPoint x="650" y="420" as="sourcePoint" />
            <mxPoint x="700" y="370" as="targetPoint" />
          </mxGeometry>
        </mxCell>
        <mxCell id="A5hs6e5QmUeZNUBaArSy-66" value="" style="endArrow=none;html=1;rounded=0;entryX=0;entryY=0.5;entryDx=0;entryDy=0;" edge="1" parent="1" target="A5hs6e5QmUeZNUBaArSy-29">
          <mxGeometry width="50" height="50" relative="1" as="geometry">
            <mxPoint x="650" y="475" as="sourcePoint" />
            <mxPoint x="700" y="460" as="targetPoint" />
          </mxGeometry>
        </mxCell>
        <mxCell id="A5hs6e5QmUeZNUBaArSy-67" value="" style="endArrow=none;html=1;rounded=0;entryX=0;entryY=0.5;entryDx=0;entryDy=0;" edge="1" parent="1" target="A5hs6e5QmUeZNUBaArSy-30">
          <mxGeometry width="50" height="50" relative="1" as="geometry">
            <mxPoint x="650" y="530" as="sourcePoint" />
            <mxPoint x="700" y="480" as="targetPoint" />
          </mxGeometry>
        </mxCell>
        <mxCell id="A5hs6e5QmUeZNUBaArSy-70" value="" style="endArrow=none;html=1;rounded=0;" edge="1" parent="1">
          <mxGeometry width="50" height="50" relative="1" as="geometry">
            <mxPoint x="830" y="530" as="sourcePoint" />
            <mxPoint x="830" y="340" as="targetPoint" />
          </mxGeometry>
        </mxCell>
        <mxCell id="A5hs6e5QmUeZNUBaArSy-71" value="" style="endArrow=none;html=1;rounded=0;entryX=0;entryY=0.5;entryDx=0;entryDy=0;" edge="1" parent="1" target="A5hs6e5QmUeZNUBaArSy-34">
          <mxGeometry width="50" height="50" relative="1" as="geometry">
            <mxPoint x="830" y="420" as="sourcePoint" />
            <mxPoint x="880" y="370" as="targetPoint" />
          </mxGeometry>
        </mxCell>
        <mxCell id="A5hs6e5QmUeZNUBaArSy-72" value="" style="endArrow=none;html=1;rounded=0;entryX=0;entryY=0.5;entryDx=0;entryDy=0;" edge="1" parent="1" target="A5hs6e5QmUeZNUBaArSy-35">
          <mxGeometry width="50" height="50" relative="1" as="geometry">
            <mxPoint x="830" y="475" as="sourcePoint" />
            <mxPoint x="880" y="430" as="targetPoint" />
          </mxGeometry>
        </mxCell>
        <mxCell id="A5hs6e5QmUeZNUBaArSy-73" value="" style="endArrow=none;html=1;rounded=0;entryX=0;entryY=0.5;entryDx=0;entryDy=0;" edge="1" parent="1" target="A5hs6e5QmUeZNUBaArSy-36">
          <mxGeometry width="50" height="50" relative="1" as="geometry">
            <mxPoint x="830" y="530" as="sourcePoint" />
            <mxPoint x="880" y="480" as="targetPoint" />
          </mxGeometry>
        </mxCell>
        <mxCell id="A5hs6e5QmUeZNUBaArSy-74" value="" style="endArrow=none;html=1;rounded=0;" edge="1" parent="1">
          <mxGeometry width="50" height="50" relative="1" as="geometry">
            <mxPoint x="1010" y="530" as="sourcePoint" />
            <mxPoint x="1010" y="340" as="targetPoint" />
          </mxGeometry>
        </mxCell>
        <mxCell id="A5hs6e5QmUeZNUBaArSy-75" value="" style="endArrow=none;html=1;rounded=0;" edge="1" parent="1" target="A5hs6e5QmUeZNUBaArSy-40">
          <mxGeometry width="50" height="50" relative="1" as="geometry">
            <mxPoint x="1010" y="420" as="sourcePoint" />
            <mxPoint x="1060" y="370" as="targetPoint" />
          </mxGeometry>
        </mxCell>
        <mxCell id="A5hs6e5QmUeZNUBaArSy-76" value="" style="endArrow=none;html=1;rounded=0;entryX=0;entryY=0.5;entryDx=0;entryDy=0;" edge="1" parent="1" target="A5hs6e5QmUeZNUBaArSy-41">
          <mxGeometry width="50" height="50" relative="1" as="geometry">
            <mxPoint x="1010" y="475" as="sourcePoint" />
            <mxPoint x="1020" y="479" as="targetPoint" />
          </mxGeometry>
        </mxCell>
        <mxCell id="A5hs6e5QmUeZNUBaArSy-77" value="" style="endArrow=none;html=1;rounded=0;entryX=0;entryY=0.5;entryDx=0;entryDy=0;" edge="1" parent="1" target="A5hs6e5QmUeZNUBaArSy-42">
          <mxGeometry width="50" height="50" relative="1" as="geometry">
            <mxPoint x="1010" y="530" as="sourcePoint" />
            <mxPoint x="1060" y="480" as="targetPoint" />
          </mxGeometry>
        </mxCell>
        <mxCell id="A5hs6e5QmUeZNUBaArSy-79" value="" style="endArrow=none;html=1;rounded=0;" edge="1" parent="1">
          <mxGeometry width="50" height="50" relative="1" as="geometry">
            <mxPoint x="1190" y="530" as="sourcePoint" />
            <mxPoint x="1190" y="340" as="targetPoint" />
          </mxGeometry>
        </mxCell>
        <mxCell id="A5hs6e5QmUeZNUBaArSy-80" value="" style="endArrow=none;html=1;rounded=0;entryX=0;entryY=0.5;entryDx=0;entryDy=0;" edge="1" parent="1" target="A5hs6e5QmUeZNUBaArSy-46">
          <mxGeometry width="50" height="50" relative="1" as="geometry">
            <mxPoint x="1190" y="420" as="sourcePoint" />
            <mxPoint x="1240" y="370" as="targetPoint" />
          </mxGeometry>
        </mxCell>
        <mxCell id="A5hs6e5QmUeZNUBaArSy-82" value="" style="endArrow=none;html=1;rounded=0;entryX=0;entryY=0.5;entryDx=0;entryDy=0;" edge="1" parent="1" target="A5hs6e5QmUeZNUBaArSy-47">
          <mxGeometry width="50" height="50" relative="1" as="geometry">
            <mxPoint x="1190" y="475" as="sourcePoint" />
            <mxPoint x="1240" y="430" as="targetPoint" />
          </mxGeometry>
        </mxCell>
        <mxCell id="A5hs6e5QmUeZNUBaArSy-83" value="" style="endArrow=none;html=1;rounded=0;entryX=0;entryY=0.5;entryDx=0;entryDy=0;" edge="1" parent="1" target="A5hs6e5QmUeZNUBaArSy-48">
          <mxGeometry width="50" height="50" relative="1" as="geometry">
            <mxPoint x="1190" y="530" as="sourcePoint" />
            <mxPoint x="1240" y="480" as="targetPoint" />
          </mxGeometry>
        </mxCell>
        <mxCell id="A5hs6e5QmUeZNUBaArSy-84" value="" style="endArrow=none;html=1;rounded=0;" edge="1" parent="1">
          <mxGeometry width="50" height="50" relative="1" as="geometry">
            <mxPoint x="370" y="260" as="sourcePoint" />
            <mxPoint x="1270" y="260" as="targetPoint" />
          </mxGeometry>
        </mxCell>
      </root>
    </mxGraphModel>
  </diagram>
</mxfile>
